<?xml version="1.0" encoding="utf-8"?>
<!-- Generator: Adobe Illustrator 17.1.0, SVG Export Plug-In . SVG Version: 6.00 Build 0)  -->
<!DOCTYPE svg PUBLIC "-//W3C//DTD SVG 1.1//EN" "http://www.w3.org/Graphics/SVG/1.1/DTD/svg11.dtd">
<svg version="1.1" id="Слой_1" xmlns="http://www.w3.org/2000/svg" xmlns:xlink="http://www.w3.org/1999/xlink" x="0px" y="0px"
	 viewBox="0 0 372.026 81.323" enable-background="new 0 0 372.026 81.323" xml:space="preserve">
<g>
	<g>
		<path fill="#E2E2E2" d="M40.645,0C18.195,0,0,18.2,0,40.644c0,22.444,18.195,40.644,40.645,40.644
			c22.449,0,40.643-18.199,40.643-40.644C81.288,18.2,63.094,0,40.645,0z M40.645,71.434c-16.98,0-30.789-13.811-30.789-30.79
			c0-16.978,13.81-30.789,30.789-30.789c16.977,0,30.788,13.811,30.788,30.789C71.433,57.623,57.622,71.434,40.645,71.434z"/>
	</g>
	<g>
		<path fill="#FFB233" d="M35.716,46.581c1.354,1.125,3.034,1.889,4.929,1.889c1.894,0,3.575-0.764,4.929-1.889V34.777
			c-1.354-1.126-3.034-1.89-4.929-1.89c-1.896,0-3.576,0.764-4.929,1.89V46.581z"/>
	</g>
	<g>
		<path fill="#FFB233" d="M40.645,19.745c-5.771,0-11,2.349-14.79,6.133l6.959,6.964c2.008-2.003,4.774-3.241,7.83-3.241
			c3.054,0,5.828,1.244,7.836,3.247l6.965-6.964C51.654,22.093,46.416,19.745,40.645,19.745z"/>
	</g>
	<g>
		<path fill="#FFB233" d="M48.481,48.508c-2.008,2.003-4.782,3.248-7.836,3.248c-3.056,0-5.828-1.24-7.83-3.248l-6.959,6.971
			c3.79,3.783,9.018,6.131,14.79,6.131c5.771,0,11.009-2.348,14.801-6.137L48.481,48.508z"/>
	</g>
	<g>
		<path fill="#FFB233" d="M40.622,81.323c0.05-0.402,0.023-0.809,0.023-1.223c0-4.525-3.056-8.345-7.219-9.498l-0.04-0.006
			C21.494,67.7,12.339,57.842,10.353,45.605h20.414c-0.746-1.487-1.211-3.151-1.211-4.927c0-1.776,0.464-3.439,1.211-4.928H10.353
			C12.729,21.12,25.352,9.89,40.645,9.89c5.839,0,11.298,1.629,15.953,4.458h-0.01c1.477,0.889,3.208,1.398,5.058,1.398
			c3.151,0,5.951-1.482,7.751-3.785C62.042,4.594,51.875,0.034,40.645,0.034C18.195,0.034,0,18.234,0,40.678
			C0,63.127,18.171,81.323,40.622,81.323z"/>
	</g>
	<g>
		<g>
			<path fill="#7F7E7C" d="M103.662,36.062v15.447c0,0-0.696,0.174-1.461,0.174c-0.731,0-1.427-0.174-1.427-0.174V36.062h-1.809
				c0,0-0.174-0.348-0.174-0.939c0-0.591,0.174-0.974,0.174-0.974h1.809v-2.088c0-3.166,1.322-4.975,4.871-4.975
				c1.566,0,2.644,0.278,3.027,0.383c0,0,0.139,0.417,0.139,0.904c0,0.487-0.139,0.904-0.139,0.904
				c-0.383-0.104-1.148-0.278-2.087-0.278c-2.261,0-2.922,0.975-2.922,3.062v2.088h5.01c0,0,0.174,0.382,0.174,0.974
				c0,0.557-0.174,0.939-0.174,0.939H103.662z"/>
		</g>
		<g>
			<path fill="#7F7E7C" d="M114.901,36.41c0,0,2.087-2.366,6.193-2.366c0,0,0.139,0.417,0.139,1.009
				c0,0.557-0.139,0.974-0.139,0.974c-4.349,0-6.193,3.166-6.193,3.166v12.316c0,0-0.73,0.174-1.426,0.174
				c-0.766,0-1.461-0.174-1.461-0.174V34.322c0,0,0.695-0.174,1.461-0.174c0.73,0,1.426,0.174,1.426,0.174V36.41z"/>
		</g>
		<g>
			<path fill="#7F7E7C" d="M123.913,39.575c0-3.514,1.879-5.531,6.993-5.531c5.219,0,6.854,2.018,6.854,5.531v3.966
				c0,0-2.052,0.278-5.497,0.278h-5.462v2.435c0,2.471,1.079,3.619,4.592,3.619c3.653,0,5.845-1.218,5.845-1.218
				s0.208,0.382,0.208,0.974c0,0.557-0.208,0.939-0.208,0.939s-1.983,1.218-5.845,1.218c-5.462,0-7.48-2.018-7.48-5.532V39.575z
				 M135.011,41.906v-2.331c0-2.47-0.974-3.618-4.105-3.618c-3.131,0-4.105,1.148-4.105,3.618v2.331H135.011z"/>
		</g>
		<g>
			<path fill="#7F7E7C" d="M141.623,39.575c0-3.514,1.879-5.531,6.993-5.531c5.219,0,6.854,2.018,6.854,5.531v3.966
				c0,0-2.053,0.278-5.497,0.278h-5.462v2.435c0,2.471,1.078,3.619,4.592,3.619c3.653,0,5.845-1.218,5.845-1.218
				s0.208,0.382,0.208,0.974c0,0.557-0.208,0.939-0.208,0.939s-1.983,1.218-5.845,1.218c-5.462,0-7.48-2.018-7.48-5.532V39.575z
				 M152.722,41.906v-2.331c0-2.47-0.974-3.618-4.105-3.618c-3.131,0-4.105,1.148-4.105,3.618v2.331H152.722z"/>
		</g>
		<g>
			<path fill="#7F7E7C" d="M165.108,49.769c0,0,0.139,0.382,0.139,0.87c0,0.486-0.139,0.834-0.139,0.834
				c-0.452,0.174-1.079,0.313-1.809,0.313c-2.609,0-3.583-1.427-3.583-3.896V27.364c0,0,0.695-0.174,1.461-0.174
				c0.73,0,1.426,0.174,1.426,0.174V47.89c0,1.356,0.417,1.983,1.635,1.983C164.552,49.874,164.83,49.803,165.108,49.769z"/>
		</g>
		<g>
			<path fill="#7F7E7C" d="M178.747,50.117c0,0-2.087,1.67-6.019,1.67c-3.479,0-4.801-1.704-4.801-4.696v-0.521
				c0-2.783,1.774-4.28,6.262-4.767l4.558-0.487v-1.948c0-2.296-0.974-3.41-3.932-3.41c-2.887,0-3.827,1.079-3.827,3.34v0.418
				c0,0-0.661,0.174-1.357,0.174c-0.73,0-1.392-0.174-1.392-0.174v-0.418c0-3.34,1.531-5.253,6.575-5.253
				c4.975,0,6.784,1.913,6.784,5.323v12.142c0,0-0.696,0.174-1.426,0.174c-0.765,0-1.426-0.174-1.426-0.174V50.117z M174.677,43.646
				c-2.923,0.313-3.862,1.287-3.862,2.923v0.521c0,1.879,0.696,2.783,2.957,2.783c3.583,0,4.975-1.705,4.975-1.705v-5.01
				L174.677,43.646z"/>
		</g>
		<g>
			<path fill="#7F7E7C" d="M188.838,35.714c0,0,2.053-1.67,5.88-1.67c3.792,0,5.219,2.018,5.219,5.531v11.933
				c0,0-0.696,0.174-1.462,0.174c-0.73,0-1.427-0.174-1.427-0.174V39.575c0-2.47-0.765-3.618-3.27-3.618
				c-3.583,0-4.94,1.705-4.94,1.705v13.846c0,0-0.73,0.174-1.426,0.174c-0.765,0-1.462-0.174-1.462-0.174V34.322
				c0,0,0.696-0.174,1.462-0.174c0.73,0,1.426,0.174,1.426,0.174V35.714z"/>
		</g>
		<g>
			<path fill="#7F7E7C" d="M204.113,39.575c0-3.514,1.844-5.531,6.818-5.531c4.976,0,6.576,2.018,6.576,5.531v0.453
				c0,0-0.627,0.174-1.322,0.174c-0.661,0-1.287-0.174-1.287-0.174v-0.453c0-2.47-0.939-3.618-3.967-3.618
				c-2.991,0-3.931,1.148-3.931,3.618v6.679c0,2.471,1.044,3.619,4.418,3.619c3.479,0,5.566-1.218,5.566-1.218
				s0.209,0.382,0.209,0.974c0,0.557-0.209,0.939-0.209,0.939s-1.878,1.218-5.566,1.218c-5.323,0-7.306-2.018-7.306-5.532V39.575z"
				/>
		</g>
		<g>
			<path fill="#7F7E7C" d="M221.093,39.575c0-3.514,1.878-5.531,6.992-5.531c5.219,0,6.853,2.018,6.853,5.531v3.966
				c0,0-2.053,0.278-5.496,0.278h-5.463v2.435c0,2.471,1.079,3.619,4.593,3.619c3.653,0,5.845-1.218,5.845-1.218
				s0.209,0.382,0.209,0.974c0,0.557-0.209,0.939-0.209,0.939s-1.983,1.218-5.845,1.218c-5.462,0-7.479-2.018-7.479-5.532V39.575z
				 M232.191,41.906v-2.331c0-2.47-0.975-3.618-4.105-3.618c-3.131,0-4.106,1.148-4.106,3.618v2.331H232.191z"/>
		</g>
		<g>
			<path fill="#7F7E7C" d="M242.073,35.714c0,0,2.053-1.67,5.845-1.67c3.758,0,5.148,2.018,5.148,5.531v11.933
				c0,0-0.695,0.174-1.461,0.174c-0.73,0-1.426-0.174-1.426-0.174V39.575c0-2.47-0.766-3.618-3.201-3.618
				c-3.549,0-4.905,1.705-4.905,1.705v13.846c0,0-0.73,0.174-1.427,0.174c-0.765,0-1.461-0.174-1.461-0.174V27.364
				c0,0,0.696-0.174,1.461-0.174c0.731,0,1.427,0.174,1.427,0.174V35.714z"/>
		</g>
		<g>
			<path fill="#7F7E7C" d="M268.307,50.117c0,0-2.053,1.67-5.81,1.67c-3.793,0-5.185-2.018-5.185-5.532V34.322
				c0,0,0.696-0.174,1.462-0.174c0.73,0,1.426,0.174,1.426,0.174v11.932c0,2.471,0.766,3.619,3.201,3.619
				c3.549,0,4.905-1.705,4.905-1.705V34.322c0,0,0.73-0.174,1.427-0.174c0.765,0,1.461,0.174,1.461,0.174v17.186
				c0,0-0.696,0.174-1.461,0.174c-0.731,0-1.427-0.174-1.427-0.174V50.117z"/>
		</g>
		<g>
			<path fill="#7F7E7C" d="M278.328,35.714c0,0,2.053-1.67,5.88-1.67c3.792,0,5.219,2.018,5.219,5.531v11.933
				c0,0-0.696,0.174-1.461,0.174c-0.732,0-1.427-0.174-1.427-0.174V39.575c0-2.47-0.766-3.618-3.27-3.618
				c-3.584,0-4.941,1.705-4.941,1.705v13.846c0,0-0.73,0.174-1.426,0.174c-0.766,0-1.461-0.174-1.461-0.174V34.322
				c0,0,0.695-0.174,1.461-0.174c0.73,0,1.426,0.174,1.426,0.174V35.714z"/>
		</g>
		<g>
			<path fill="#7F7E7C" d="M297.673,36.131v10.68c0,2.088,0.73,3.063,2.992,3.063c0.904,0,1.53-0.244,1.913-0.348
				c0,0,0.139,0.383,0.139,0.869c0,0.487-0.139,0.869-0.139,0.869c-0.383,0.105-1.462,0.522-2.853,0.522
				c-3.584,0-4.906-1.81-4.906-4.976v-10.68h-1.809c0,0-0.174-0.383-0.174-0.939c0-0.591,0.174-0.974,0.174-0.974h1.948l0.278-3.375
				c0,0,0.592-0.174,1.218-0.174c0.626,0,1.218,0.174,1.218,0.174v3.375h4.905c0,0,0.174,0.383,0.174,0.974
				c0,0.557-0.174,0.939-0.174,0.939H297.673z"/>
		</g>
		<g>
			<path fill="#7F7E7C" d="M309.712,51.508c0,0-0.696,0.174-1.392,0.174c-0.732,0-1.427-0.174-1.427-0.174v-3.549
				c0,0,0.695-0.139,1.427-0.139c0.695,0,1.392,0.139,1.392,0.139V51.508z"/>
		</g>
		<g>
			<path fill="#7F7E7C" d="M313.435,39.575c0-3.514,1.844-5.531,6.818-5.531c4.976,0,6.576,2.018,6.576,5.531v0.453
				c0,0-0.627,0.174-1.322,0.174c-0.661,0-1.287-0.174-1.287-0.174v-0.453c0-2.47-0.939-3.618-3.967-3.618
				c-2.991,0-3.931,1.148-3.931,3.618v6.679c0,2.471,1.044,3.619,4.418,3.619c3.479,0,5.566-1.218,5.566-1.218
				s0.209,0.382,0.209,0.974c0,0.557-0.209,0.939-0.209,0.939s-1.878,1.218-5.566,1.218c-5.323,0-7.306-2.018-7.306-5.532V39.575z"
				/>
		</g>
		<g>
			<path fill="#7F7E7C" d="M330.415,39.575c0-3.514,1.982-5.531,7.097-5.531c5.114,0,7.097,2.018,7.097,5.531v6.679
				c0,3.515-1.982,5.532-7.097,5.532c-5.114,0-7.097-2.018-7.097-5.532V39.575z M333.302,46.254c0,2.471,1.079,3.619,4.21,3.619
				c3.131,0,4.21-1.148,4.21-3.619v-6.679c0-2.47-1.079-3.618-4.21-3.618c-3.131,0-4.21,1.148-4.21,3.618V46.254z"/>
		</g>
		<g>
			<path fill="#7F7E7C" d="M348.856,34.322c0,0,0.695-0.174,1.461-0.174c0.73,0,1.427,0.174,1.427,0.174v1.392
				c0,0,1.879-1.67,5.322-1.67c2.157,0,3.514,0.661,4.141,1.913c0,0,2.156-1.913,5.983-1.913c3.514,0,4.836,1.878,4.836,5.218
				v12.246c0,0-0.696,0.174-1.461,0.174c-0.731,0-1.427-0.174-1.427-0.174V39.262c0-2.261-0.695-3.305-2.888-3.305
				c-2.888,0-4.14,1.392-4.384,1.705v13.846c0,0-0.695,0.174-1.426,0.174c-0.73,0-1.427-0.174-1.427-0.174V39.262
				c0-2.261-0.695-3.305-2.922-3.305c-3.132,0-4.349,1.705-4.349,1.705v13.846c0,0-0.73,0.174-1.427,0.174
				c-0.766,0-1.461-0.174-1.461-0.174V34.322z"/>
		</g>
	</g>
	<g>
		<g>
			<path fill="#7F7E7C" d="M103.169,62.815h-3.456v6.727h-1.252V61.72h5.96v7.821h-1.252V62.815z"/>
		</g>
		<g>
			<path fill="#7F7E7C" d="M106.829,61.72h0.86l0.234,0.938h0.063c0.24-0.365,0.55-0.644,0.931-0.836
				c0.381-0.193,0.816-0.29,1.306-0.29c1.043,0,1.82,0.308,2.331,0.923c0.511,0.615,0.766,1.621,0.766,3.02
				c0,0.656-0.086,1.248-0.258,1.775c-0.172,0.526-0.415,0.973-0.728,1.337c-0.313,0.365-0.691,0.646-1.134,0.845
				c-0.443,0.197-0.937,0.297-1.479,0.297c-0.386,0-0.691-0.023-0.915-0.07c-0.224-0.047-0.467-0.127-0.727-0.242v3.254h-1.251
				V61.72z M109.989,62.627c-0.532,0-0.952,0.139-1.259,0.414c-0.308,0.277-0.524,0.697-0.649,1.26v3.879
				c0.188,0.146,0.401,0.259,0.641,0.337c0.24,0.078,0.558,0.117,0.954,0.117c0.72,0,1.291-0.269,1.713-0.806
				c0.422-0.537,0.633-1.326,0.633-2.369c0-0.428-0.037-0.816-0.109-1.166c-0.073-0.35-0.19-0.647-0.352-0.892
				c-0.162-0.245-0.37-0.435-0.625-0.571C110.679,62.696,110.364,62.627,109.989,62.627z"/>
		</g>
		<g>
			<path fill="#7F7E7C" d="M114.854,65.631c0-1.324,0.294-2.339,0.884-3.043c0.589-0.703,1.436-1.056,2.541-1.056
				c0.584,0,1.092,0.097,1.525,0.29c0.433,0.192,0.79,0.469,1.071,0.828c0.282,0.359,0.49,0.793,0.626,1.299
				c0.135,0.506,0.203,1.066,0.203,1.682c0,1.324-0.294,2.338-0.884,3.042c-0.589,0.704-1.437,1.056-2.542,1.056
				c-0.584,0-1.092-0.096-1.525-0.289c-0.433-0.193-0.79-0.469-1.071-0.829c-0.282-0.36-0.491-0.792-0.626-1.298
				C114.921,66.807,114.854,66.246,114.854,65.631z M116.152,65.631c0,0.396,0.039,0.776,0.117,1.142
				c0.078,0.365,0.201,0.683,0.368,0.954c0.167,0.271,0.386,0.49,0.657,0.656c0.271,0.168,0.6,0.251,0.985,0.251
				c1.418,0.011,2.127-0.991,2.127-3.003c0-0.407-0.039-0.793-0.117-1.158c-0.078-0.365-0.201-0.683-0.368-0.954
				c-0.167-0.271-0.386-0.487-0.657-0.649c-0.271-0.161-0.6-0.242-0.986-0.242C116.861,62.618,116.152,63.619,116.152,65.631z"/>
		</g>
		<g>
			<path fill="#7F7E7C" d="M129.01,69.026c-0.313,0.229-0.683,0.404-1.111,0.523c-0.428,0.119-0.876,0.18-1.345,0.18
				c-0.605,0-1.116-0.096-1.533-0.289c-0.417-0.193-0.759-0.469-1.025-0.829c-0.266-0.36-0.459-0.792-0.579-1.298
				c-0.12-0.506-0.18-1.066-0.18-1.682c0-1.324,0.292-2.339,0.876-3.043c0.584-0.703,1.423-1.056,2.518-1.056
				c0.501,0,0.925,0.039,1.275,0.117c0.35,0.078,0.665,0.19,0.946,0.337l-0.359,1.078c-0.24-0.135-0.506-0.242-0.798-0.32
				c-0.292-0.078-0.605-0.117-0.938-0.117c-1.481,0-2.221,1.002-2.221,3.004c0,0.396,0.039,0.773,0.117,1.134
				c0.078,0.36,0.208,0.678,0.391,0.954c0.182,0.276,0.422,0.498,0.719,0.664c0.297,0.168,0.665,0.251,1.103,0.251
				c0.375,0,0.712-0.058,1.009-0.172c0.297-0.114,0.54-0.245,0.728-0.392L129.01,69.026z"/>
		</g>
		<g>
			<path fill="#7F7E7C" d="M135.47,62.815h-2.456v6.727h-1.251v-6.727h-2.456V61.72h6.163V62.815z"/>
		</g>
		<g>
			<path fill="#7F7E7C" d="M136.018,65.631c0-1.324,0.294-2.339,0.884-3.043c0.589-0.703,1.436-1.056,2.542-1.056
				c0.584,0,1.092,0.097,1.525,0.29c0.433,0.192,0.79,0.469,1.071,0.828c0.282,0.359,0.49,0.793,0.626,1.299
				c0.135,0.506,0.203,1.066,0.203,1.682c0,1.324-0.294,2.338-0.884,3.042c-0.589,0.704-1.437,1.056-2.542,1.056
				c-0.584,0-1.092-0.096-1.525-0.289c-0.433-0.193-0.79-0.469-1.071-0.829c-0.282-0.36-0.491-0.792-0.626-1.298
				C136.085,66.807,136.018,66.246,136.018,65.631z M137.316,65.631c0,0.396,0.039,0.776,0.117,1.142
				c0.078,0.365,0.201,0.683,0.368,0.954c0.167,0.271,0.386,0.49,0.657,0.656c0.271,0.168,0.6,0.251,0.985,0.251
				c1.419,0.011,2.128-0.991,2.128-3.003c0-0.407-0.039-0.793-0.117-1.158c-0.078-0.365-0.201-0.683-0.368-0.954
				c-0.167-0.271-0.386-0.487-0.657-0.649c-0.271-0.161-0.6-0.242-0.986-0.242C138.025,62.618,137.316,63.619,137.316,65.631z"/>
		</g>
		<g>
			<path fill="#7F7E7C" d="M149.72,64.912l0.047-0.97h-0.047l-0.642,1.001l-3.52,4.599h-0.719V61.72h1.251v4.771l-0.047,0.924h0.063
				l0.61-0.971l3.52-4.724h0.735v7.821h-1.251V64.912z M146.639,58.561c0.104,0.479,0.284,0.813,0.54,1
				c0.255,0.188,0.55,0.282,0.884,0.282c0.333,0,0.631-0.099,0.892-0.298c0.261-0.197,0.438-0.521,0.532-0.969l0.939,0.297
				c-0.094,0.605-0.362,1.068-0.805,1.393c-0.443,0.322-0.973,0.484-1.588,0.484c-0.282,0-0.561-0.036-0.837-0.109
				c-0.276-0.072-0.524-0.183-0.743-0.328c-0.219-0.146-0.407-0.334-0.563-0.563c-0.156-0.229-0.261-0.501-0.313-0.813
				L146.639,58.561z"/>
		</g>
		<g>
			<path fill="#7F7E7C" d="M162.437,64.912l0.047-0.97h-0.047l-0.642,1.001l-3.52,4.599h-0.719V61.72h1.251v4.771l-0.047,0.924
				h0.063l0.61-0.971l3.52-4.724h0.735v7.821h-1.251V64.912z"/>
		</g>
		<g>
			<path fill="#7F7E7C" d="M171.087,61.72v2.128c0,0.281,0.016,0.534,0.047,0.758c0.031,0.225,0.094,0.418,0.188,0.579
				c0.094,0.162,0.229,0.287,0.407,0.376c0.177,0.088,0.412,0.133,0.704,0.133c0.469,0,0.855-0.053,1.157-0.156
				c0.302-0.104,0.532-0.22,0.689-0.345V61.72h1.251v7.821h-1.251v-3.285c-0.167,0.104-0.415,0.219-0.743,0.344
				c-0.329,0.126-0.78,0.188-1.353,0.188c-0.386,0-0.725-0.042-1.017-0.125c-0.292-0.083-0.537-0.229-0.735-0.438
				c-0.198-0.208-0.347-0.484-0.446-0.828c-0.099-0.345-0.148-0.777-0.148-1.299V61.72H171.087z"/>
		</g>
		<g>
			<path fill="#7F7E7C" d="M183.647,68.916c-0.313,0.25-0.706,0.447-1.181,0.594c-0.475,0.146-0.978,0.219-1.509,0.219
				c-0.595,0-1.111-0.096-1.549-0.289c-0.438-0.193-0.798-0.469-1.079-0.829c-0.282-0.36-0.491-0.79-0.626-1.29
				c-0.136-0.501-0.203-1.064-0.203-1.689c0-1.335,0.297-2.352,0.892-3.051c0.594-0.698,1.444-1.048,2.549-1.048
				c0.355,0,0.709,0.039,1.064,0.117c0.355,0.078,0.672,0.228,0.954,0.446c0.282,0.219,0.511,0.529,0.689,0.93
				c0.177,0.402,0.266,0.932,0.266,1.588c0,0.345-0.031,0.726-0.094,1.143h-5.021c0,0.459,0.047,0.865,0.141,1.22
				c0.094,0.354,0.24,0.655,0.438,0.899c0.198,0.245,0.456,0.434,0.774,0.564c0.318,0.13,0.706,0.195,1.165,0.195
				c0.354,0,0.709-0.063,1.064-0.188c0.355-0.126,0.62-0.271,0.798-0.438L183.647,68.916z M180.957,62.627
				c-0.616,0-1.108,0.162-1.479,0.484c-0.37,0.324-0.592,0.877-0.665,1.658h3.879c0-0.792-0.151-1.348-0.454-1.666
				C181.937,62.787,181.509,62.627,180.957,62.627z"/>
		</g>
		<g>
			<path fill="#7F7E7C" d="M191.046,69.026c-0.313,0.229-0.683,0.404-1.111,0.523c-0.428,0.119-0.876,0.18-1.345,0.18
				c-0.605,0-1.116-0.096-1.533-0.289c-0.418-0.193-0.759-0.469-1.025-0.829c-0.266-0.36-0.459-0.792-0.579-1.298
				c-0.12-0.506-0.18-1.066-0.18-1.682c0-1.324,0.292-2.339,0.876-3.043c0.584-0.703,1.423-1.056,2.518-1.056
				c0.501,0,0.925,0.039,1.275,0.117c0.35,0.078,0.665,0.19,0.946,0.337l-0.359,1.078c-0.24-0.135-0.506-0.242-0.798-0.32
				c-0.292-0.078-0.605-0.117-0.939-0.117c-1.481,0-2.221,1.002-2.221,3.004c0,0.396,0.039,0.773,0.117,1.134
				c0.078,0.36,0.209,0.678,0.391,0.954c0.182,0.276,0.422,0.498,0.719,0.664c0.297,0.168,0.665,0.251,1.103,0.251
				c0.376,0,0.712-0.058,1.009-0.172c0.297-0.114,0.54-0.245,0.728-0.392L191.046,69.026z"/>
		</g>
		<g>
			<path fill="#7F7E7C" d="M197.506,62.815h-2.456v6.727h-1.251v-6.727h-2.456V61.72h6.163V62.815z"/>
		</g>
		<g>
			<path fill="#7F7E7C" d="M203.529,66.084h-3.535v3.457h-1.252V61.72h1.252v3.27h3.535v-3.27h1.251v7.821h-1.251V66.084z"/>
		</g>
		<g>
			<path fill="#7F7E7C" d="M208.441,64.707c0.25-0.041,0.489-0.07,0.719-0.086c0.23-0.016,0.448-0.023,0.657-0.023
				c0.532,0,0.978,0.061,1.337,0.18c0.359,0.121,0.649,0.285,0.869,0.493c0.219,0.209,0.372,0.456,0.461,0.743
				c0.088,0.287,0.133,0.592,0.133,0.915c0,0.949-0.264,1.638-0.79,2.065c-0.526,0.428-1.379,0.641-2.558,0.641
				c-0.668,0-1.361-0.031-2.08-0.094V61.72h1.252V64.707z M208.441,68.447c0.385,0.063,0.756,0.094,1.109,0.094
				c0.658,0,1.116-0.128,1.377-0.384c0.261-0.255,0.391-0.617,0.391-1.087c0-0.417-0.127-0.761-0.383-1.032
				c-0.256-0.271-0.701-0.406-1.338-0.406c-0.177,0-0.369,0.005-0.578,0.016c-0.209,0.01-0.402,0.041-0.578,0.094V68.447z
				 M213.853,61.72h1.251v7.821h-1.251V61.72z"/>
		</g>
		<g>
			<path fill="#7F7E7C" d="M222.393,64.912l0.047-0.97h-0.047l-0.642,1.001l-3.52,4.599h-0.719V61.72h1.251v4.771l-0.048,0.924
				h0.063l0.61-0.971l3.52-4.724h0.734v7.821h-1.251V64.912z M219.312,58.561c0.104,0.479,0.283,0.813,0.539,1
				c0.256,0.188,0.55,0.282,0.884,0.282c0.333,0,0.631-0.099,0.892-0.298c0.261-0.197,0.437-0.521,0.531-0.969l0.939,0.297
				c-0.094,0.605-0.363,1.068-0.806,1.393c-0.443,0.322-0.973,0.484-1.588,0.484c-0.282,0-0.561-0.036-0.837-0.109
				c-0.276-0.072-0.523-0.183-0.743-0.328c-0.219-0.146-0.407-0.334-0.563-0.563c-0.156-0.229-0.26-0.501-0.313-0.813
				L219.312,58.561z"/>
		</g>
		<g>
			<path fill="#7F7E7C" d="M233.749,69.604c-0.178,0.063-0.363,0.1-0.557,0.109c-0.192,0.01-0.367,0.016-0.523,0.016
				c-0.949,0-1.68-0.334-2.19-1.001c-0.512-0.667-0.767-1.7-0.767-3.097c0-1.335,0.281-2.342,0.845-3.02
				c0.563-0.678,1.377-1.017,2.439-1.017c0.293,0,0.543,0.021,0.752,0.063v-3.065h1.188v3.081c0.188-0.031,0.355-0.052,0.501-0.063
				c0.146-0.011,0.287-0.016,0.423-0.016c1.032,0,1.809,0.3,2.33,0.899c0.522,0.6,0.782,1.594,0.782,2.98
				c0,0.656-0.07,1.248-0.211,1.775c-0.141,0.526-0.347,0.973-0.618,1.337c-0.271,0.365-0.602,0.646-0.993,0.845
				c-0.392,0.197-0.843,0.297-1.352,0.297c-0.094,0-0.232-0.008-0.415-0.023c-0.183-0.016-0.331-0.045-0.446-0.086v3.051h-1.188
				V69.604z M232.982,68.697c0.125,0,0.25-0.005,0.376-0.016c0.125-0.011,0.261-0.031,0.407-0.063V62.69
				c-0.126-0.021-0.243-0.036-0.353-0.047c-0.109-0.01-0.243-0.016-0.399-0.016c-0.646,0-1.149,0.242-1.509,0.728
				c-0.36,0.485-0.54,1.243-0.54,2.276c0,0.438,0.039,0.844,0.117,1.22c0.078,0.376,0.201,0.702,0.367,0.978
				c0.168,0.276,0.379,0.49,0.635,0.642C232.338,68.621,232.638,68.697,232.982,68.697z M235.626,62.627
				c-0.125,0-0.238,0.003-0.337,0.008c-0.099,0.006-0.222,0.029-0.368,0.07v5.944c0.105,0.021,0.223,0.034,0.353,0.039
				c0.13,0.005,0.274,0.008,0.431,0.008c0.667,0,1.17-0.276,1.509-0.829c0.339-0.553,0.509-1.35,0.509-2.393
				c0-0.887-0.154-1.583-0.461-2.089C236.953,62.88,236.408,62.627,235.626,62.627z"/>
		</g>
		<g>
			<path fill="#7F7E7C" d="M240.867,61.72h0.859l0.234,0.938h0.062c0.24-0.365,0.551-0.644,0.932-0.836
				c0.381-0.193,0.815-0.29,1.306-0.29c1.043,0,1.819,0.308,2.331,0.923c0.511,0.615,0.766,1.621,0.766,3.02
				c0,0.656-0.086,1.248-0.258,1.775c-0.172,0.526-0.414,0.973-0.727,1.337c-0.314,0.365-0.691,0.646-1.135,0.845
				c-0.443,0.197-0.936,0.297-1.479,0.297c-0.385,0-0.69-0.023-0.914-0.07c-0.225-0.047-0.467-0.127-0.728-0.242v3.254h-1.251V61.72
				z M244.026,62.627c-0.532,0-0.952,0.139-1.259,0.414c-0.309,0.277-0.524,0.697-0.649,1.26v3.879
				c0.188,0.146,0.401,0.259,0.642,0.337c0.239,0.078,0.557,0.117,0.953,0.117c0.721,0,1.291-0.269,1.713-0.806
				c0.423-0.537,0.634-1.326,0.634-2.369c0-0.428-0.036-0.816-0.109-1.166c-0.073-0.35-0.19-0.647-0.353-0.892
				c-0.161-0.245-0.369-0.435-0.625-0.571C244.716,62.696,244.402,62.627,244.026,62.627z"/>
		</g>
		<g>
			<path fill="#7F7E7C" d="M254.208,64.912l0.047-0.97h-0.047l-0.642,1.001l-3.52,4.599h-0.72V61.72h1.252v4.771l-0.047,0.924h0.063
				l0.609-0.971l3.52-4.724h0.736v7.821h-1.252V64.912z"/>
		</g>
		<g>
			<path fill="#7F7E7C" d="M262.076,62.815h-2.267c-0.031,0.438-0.063,0.91-0.094,1.416c-0.031,0.506-0.078,1.012-0.141,1.518
				c-0.063,0.506-0.147,0.99-0.25,1.455c-0.105,0.463-0.238,0.873-0.399,1.227c-0.161,0.355-0.36,0.64-0.595,0.854
				c-0.234,0.213-0.514,0.32-0.836,0.32c-0.199,0-0.371-0.01-0.517-0.031c-0.146-0.021-0.276-0.057-0.392-0.109l0.188-1.049
				c0.126,0.043,0.262,0.063,0.407,0.063c0.208,0,0.397-0.089,0.564-0.267c0.166-0.177,0.313-0.514,0.438-1.008
				c0.125-0.496,0.229-1.182,0.313-2.058c0.084-0.876,0.141-2.018,0.173-3.426h4.661v7.821h-1.252V62.815z"/>
		</g>
		<g>
			<path fill="#7F7E7C" d="M265.611,62.299c0.397-0.24,0.858-0.417,1.385-0.532c0.527-0.114,1.076-0.172,1.65-0.172
				c0.543,0,0.978,0.073,1.307,0.22c0.328,0.146,0.578,0.336,0.75,0.57c0.172,0.234,0.287,0.492,0.345,0.774
				c0.058,0.281,0.086,0.563,0.086,0.845c0,0.625-0.016,1.235-0.047,1.83c-0.031,0.594-0.047,1.157-0.047,1.69
				c0,0.386,0.016,0.75,0.047,1.095c0.031,0.345,0.089,0.662,0.172,0.954h-0.923l-0.328-1.095h-0.078
				c-0.094,0.146-0.211,0.289-0.353,0.431c-0.141,0.141-0.31,0.266-0.509,0.375c-0.197,0.109-0.428,0.201-0.688,0.273
				c-0.261,0.072-0.559,0.109-0.892,0.109c-0.334,0-0.644-0.053-0.931-0.156c-0.287-0.104-0.535-0.253-0.743-0.445
				c-0.209-0.193-0.373-0.426-0.493-0.697c-0.119-0.271-0.18-0.578-0.18-0.922c0-0.459,0.094-0.842,0.281-1.15
				c0.188-0.307,0.451-0.553,0.791-0.734c0.338-0.183,0.744-0.313,1.22-0.392c0.474-0.078,0.998-0.117,1.571-0.117
				c0.147,0,0.29,0,0.431,0s0.284,0.011,0.431,0.031c0.031-0.314,0.047-0.595,0.047-0.845c0-0.573-0.115-0.975-0.345-1.205
				c-0.229-0.229-0.646-0.344-1.251-0.344c-0.178,0-0.367,0.014-0.571,0.041c-0.203,0.026-0.412,0.064-0.626,0.112
				c-0.213,0.048-0.417,0.107-0.609,0.177c-0.193,0.07-0.363,0.147-0.509,0.233L265.611,62.299z M267.832,68.572
				c0.292,0,0.553-0.039,0.782-0.117c0.23-0.079,0.428-0.177,0.595-0.298c0.167-0.119,0.305-0.252,0.414-0.398
				c0.11-0.146,0.19-0.287,0.243-0.422v-1.299c-0.147-0.01-0.295-0.018-0.446-0.023c-0.151-0.005-0.3-0.008-0.446-0.008
				c-0.322,0-0.639,0.019-0.945,0.055c-0.309,0.037-0.579,0.104-0.814,0.203c-0.234,0.1-0.422,0.234-0.563,0.407
				c-0.141,0.172-0.211,0.388-0.211,0.649c0,0.365,0.13,0.664,0.391,0.898C267.092,68.454,267.426,68.572,267.832,68.572z"/>
		</g>
		<g>
			<path fill="#7F7E7C" d="M278.282,66.084h-3.535v3.457h-1.251V61.72h1.251v3.27h3.535v-3.27h1.251v7.821h-1.251V66.084z"/>
		</g>
		<g>
			<path fill="#7F7E7C" d="M287.276,69.026c-0.313,0.229-0.683,0.404-1.11,0.523c-0.428,0.119-0.877,0.18-1.346,0.18
				c-0.605,0-1.115-0.096-1.533-0.289c-0.417-0.193-0.758-0.469-1.024-0.829c-0.266-0.36-0.459-0.792-0.579-1.298
				c-0.119-0.506-0.18-1.066-0.18-1.682c0-1.324,0.292-2.339,0.877-3.043c0.584-0.703,1.423-1.056,2.518-1.056
				c0.501,0,0.926,0.039,1.275,0.117c0.35,0.078,0.664,0.19,0.945,0.337l-0.359,1.078c-0.24-0.135-0.506-0.242-0.797-0.32
				c-0.293-0.078-0.605-0.117-0.94-0.117c-1.48,0-2.221,1.002-2.221,3.004c0,0.396,0.039,0.773,0.117,1.134
				c0.078,0.36,0.209,0.678,0.391,0.954c0.183,0.276,0.423,0.498,0.72,0.664c0.298,0.168,0.665,0.251,1.103,0.251
				c0.376,0,0.713-0.058,1.01-0.172c0.297-0.114,0.539-0.245,0.727-0.392L287.276,69.026z"/>
		</g>
	</g>
</g>
</svg>
